<svg width="1024" height="1024" viewBox="0 0 1024 1024" xmlns="http://www.w3.org/2000/svg">
  <!--
    부력 잠수함(teavel-submarine) 아이콘 — 작은 크기용(16·32·48px). gen.py 로 생성.
    teaveloper 공용 규격: 800x800 라운드 사각형(rx 184) · 공식 그라데이션 · 죽방.
    흰 잠수함 한 척, 선체 가운데 죽방 엠블럼(배경색으로 파냄).
  -->
  <defs>
    <linearGradient id="g" gradientUnits="userSpaceOnUse" x1="112" y1="112" x2="912" y2="912">
      <stop offset="0%"   stop-color="#6366f1"/>
      <stop offset="50%"  stop-color="#8b5cf6"/>
      <stop offset="100%" stop-color="#06b6d4"/>
    </linearGradient>
  </defs>

  <rect x="112" y="112" width="800" height="800" rx="184" fill="url(#g)"/>

  <!-- 잠수함: 잠망경 · 탑 · 선체(앞 둥글고 뒤 좁음) · 꼬리 날개 -->
  <path d="M580 340.0 V250.0 H648" fill="none" stroke="#ffffff" stroke-width="26" stroke-linejoin="round"/>
  <rect x="636" y="228.0" width="34" height="44" rx="8" fill="#ffffff"/>
  <g fill="#ffffff">
    <path d="M452 444.0 L478 330.0 H626 L652 444.0 Z"/>
    <path d="M236 520 Q346 440.0 466 440.0 H716.0 A150.0 150.0 0 0 1 716.0 740.0 H466 Q346 740.0 236 660 Z"/>
    <path d="M266 560 L196 460 H158 L216 590 L158 720 H196 L266 620 Z"/>
  </g>

  <!-- 죽방 엠블럼 -->
  <g fill="url(#g)">
    <circle cx="552" cy="546" r="48"/>
    <path d="M552 578 L495 682 L609 682 Z"/>
  </g>
</svg>
